<?xml version="1.0" encoding="UTF-8"?>
<svg version="1.1" xmlns="http://www.w3.org/2000/svg" width="1083" height="1006">
<path d="M0 0 C357.39 0 714.78 0 1083 0 C1083 331.98 1083 663.96 1083 1006 C725.61 1006 368.22 1006 0 1006 C0 674.02 0 342.04 0 0 Z " fill="#FEFEFE" transform="translate(0,0)"/>
<path d="M0 0 C0.74305389 -0.00117828 1.48610779 -0.00235657 2.25167847 -0.00357056 C16.76226673 -0.00095528 31.24499518 0.49545045 45.625 2.5625 C47.02383423 2.75767212 47.02383423 2.75767212 48.45092773 2.95678711 C54.53024925 3.83597327 60.47048764 5.00243683 66.4296875 6.50390625 C70.5875068 7.46891736 74.77992135 8.02441715 79.01171875 8.5625 C83.58920335 9.41313593 87.94067423 10.7816923 92.375 12.1875 C93.36282471 12.49848633 94.35064941 12.80947266 95.3684082 13.12988281 C113.28535485 18.83243312 131.00315985 24.83216277 147.375 34.1875 C147.375 75.1075 147.375 116.0275 147.375 158.1875 C142.63400674 154.63175506 138.14575029 151.20998562 133.6875 147.375 C117.6649467 133.87373631 99.47726144 123.63315152 80.375 115.1875 C79.52164062 114.80078125 78.66828125 114.4140625 77.7890625 114.015625 C69.57963317 110.50141315 60.84479221 108.26310769 52.27929688 105.78833008 C50.375 105.1875 50.375 105.1875 48.375 104.1875 C46.08844787 103.83954641 43.7953743 103.53398803 41.5 103.25 C34.05160065 102.32478129 34.05160065 102.32478129 30.91552734 101.68847656 C20.90501004 99.71507074 10.91306176 99.79077655 0.75 99.8125 C-0.20253662 99.81304382 -1.15507324 99.81358765 -2.13647461 99.81414795 C-24.56050704 99.87297033 -45.48500368 102.36555322 -66.625 110.1875 C-67.29031738 110.42726563 -67.95563477 110.66703125 -68.64111328 110.9140625 C-93.51298893 119.95160953 -114.64891509 134.97466954 -133.625 153.1875 C-134.45704956 153.98232788 -134.45704956 153.98232788 -135.3059082 154.79321289 C-139.58478439 158.96127096 -143.3348181 163.3645911 -146.9375 168.125 C-147.77498779 169.22871948 -147.77498779 169.22871948 -148.62939453 170.35473633 C-165.48967144 192.88724741 -181.28784371 221.55816442 -181.8515625 250.40625 C-182.18602146 267.19556909 -182.18602146 267.19556909 -186.62109375 272.20703125 C-189.70936418 275.08392782 -193.0787803 277.48056051 -196.59570312 279.80371094 C-199.82849197 282.00816801 -202.73420136 284.56541644 -205.6875 287.125 C-206.68910156 287.95902344 -207.69070313 288.79304688 -208.72265625 289.65234375 C-210.8919983 291.54723337 -212.87494197 293.44131674 -214.87109375 295.50390625 C-217.625 298.1875 -217.625 298.1875 -219.625 298.1875 C-219.86347656 298.75210937 -220.10195313 299.31671875 -220.34765625 299.8984375 C-221.89849823 302.67762221 -223.82007413 304.55213472 -226.0625 306.8125 C-235.14019524 316.62800501 -242.25062517 328.56043864 -246.625 341.1875 C-246.95757812 341.909375 -247.29015625 342.63125 -247.6328125 343.375 C-256.14682279 362.04275589 -255.35240117 384.47525964 -250.59765625 403.953125 C-249.6084963 408.01477513 -249.07152123 412.03250241 -248.625 416.1875 C-251.99678837 413.03593699 -253.81629145 409.49087629 -255.9375 405.4375 C-256.33485352 404.68251221 -256.73220703 403.92752441 -257.14160156 403.1496582 C-260.26183393 397.11320865 -262.87823743 390.99013256 -265.296875 384.64453125 C-266.48044299 381.5637734 -267.7788421 378.57431529 -269.125 375.5625 C-272.82181149 366.73056772 -275.1773457 357.42638464 -277.625 348.1875 C-277.81980957 347.45370117 -278.01461914 346.71990234 -278.21533203 345.96386719 C-283.19383243 326.87134073 -286.76732328 306.94511295 -286.79296875 287.18359375 C-286.79629715 286.2614357 -286.79962555 285.33927765 -286.80305481 284.38917542 C-286.80808302 282.44882703 -286.81046442 280.50847013 -286.81030273 278.56811523 C-286.81247642 275.6565866 -286.8306414 272.74544562 -286.84960938 269.83398438 C-286.89028431 256.22430996 -286.42184025 242.73038931 -283.1171875 229.4609375 C-282.48329382 226.53295243 -282.13060043 223.5963542 -281.75 220.625 C-280.03297704 208.42373079 -276.6895946 196.99268547 -272.6875 185.375 C-272.36378418 184.43277588 -272.04006836 183.49055176 -271.70654297 182.51977539 C-267.38493195 170.26806178 -261.52848179 158.73513751 -255.625 147.1875 C-255.13128906 146.21683594 -254.63757813 145.24617187 -254.12890625 144.24609375 C-249.88155872 136.1725238 -244.79024184 128.69168308 -239.625 121.1875 C-239.20669922 120.57406738 -238.78839844 119.96063477 -238.35742188 119.32861328 C-232.65811087 110.99593518 -226.55279938 103.54755668 -219.625 96.1875 C-218.36719321 94.77776012 -217.11640454 93.36170477 -215.875 91.9375 C-215.32199219 91.30457031 -214.76898438 90.67164063 -214.19921875 90.01953125 C-213.16810289 88.81954778 -212.14928526 87.60886017 -211.14453125 86.38671875 C-207.92280925 82.49128545 -204.46966696 79.20066063 -200.6171875 75.9296875 C-198.74994265 74.29676357 -197.03237604 72.59820861 -195.3125 70.8125 C-144.81080969 19.85990174 -69.55153472 0.08401362 0 0 Z " fill="#F47721" transform="translate(516.625,131.8125)"/>
<path d="M0 0 C1.01553955 0.30405762 2.0310791 0.60811523 3.07739258 0.92138672 C9.92843288 2.98523851 16.76641189 5.07631392 23.5 7.5 C24.3971875 7.81839844 25.294375 8.13679688 26.21875 8.46484375 C43.94334513 15.01827958 61.31287082 22.72982516 77.5 32.5 C77.5 34.81 77.5 37.12 77.5 39.5 C74.15269429 38.77369782 71.14961236 37.58773858 68 36.25 C66.38931641 35.57324219 66.38931641 35.57324219 64.74609375 34.8828125 C62.75442018 34.03437394 60.76647339 33.1770372 58.78515625 32.3046875 C30.62659588 20.10399133 -0.08922484 13.03951018 -30.5 9.5 C-31.30969238 9.40428711 -32.11938477 9.30857422 -32.95361328 9.20996094 C-71.94856735 5.29551948 -112.73936326 7.82421788 -150.5 18.5 C-151.30679199 18.72268555 -152.11358398 18.94537109 -152.94482422 19.17480469 C-192.8059406 30.26428144 -230.79305497 47.95972381 -263.5 73.5 C-264.2528125 74.07105469 -265.005625 74.64210938 -265.78125 75.23046875 C-289.59887331 93.39572131 -310.82539293 114.310903 -328.5 138.5 C-328.95213867 139.11085449 -329.40427734 139.72170898 -329.87011719 140.35107422 C-342.53134803 157.46403536 -354.35772703 176.02047263 -362.70336914 195.63647461 C-363.44809642 197.37858411 -364.20975745 199.11342741 -364.97265625 200.84765625 C-378.06684381 231.12459926 -386.18640373 262.68087517 -389.5 295.5 C-389.63148438 296.78390625 -389.76296875 298.0678125 -389.8984375 299.390625 C-390.22174964 303.4276577 -390.39999818 307.45263953 -390.5 311.5 C-390.52723145 312.57717285 -390.55446289 313.6543457 -390.58251953 314.76416016 C-390.97377083 333.21694957 -390.11474096 351.19681329 -387.5 369.5 C-387.3772168 370.37495117 -387.25443359 371.24990234 -387.12792969 372.15136719 C-383.73436136 395.75676671 -376.68288359 418.53150857 -367.5 440.5 C-366.8733708 442.14521373 -366.24822329 443.79099306 -365.625 445.4375 C-362.72721417 452.67595258 -359.07131803 459.57700432 -355.5 466.5 C-354.93152344 467.60730469 -354.36304688 468.71460938 -353.77734375 469.85546875 C-342.59664962 491.13314906 -328.57572656 510.65398242 -312.5 528.5 C-311.73792236 529.34667236 -311.73792236 529.34667236 -310.96044922 530.21044922 C-302.28508332 539.80473511 -293.43292424 549.18845642 -283.5 557.5 C-282.9548877 557.95890625 -282.40977539 558.4178125 -281.84814453 558.890625 C-272.11840828 567.05154754 -262.08967887 574.49784499 -251.5 581.5 C-250.29162562 582.31243895 -249.08329121 583.12493735 -247.875 583.9375 C-241.12384956 588.42703844 -234.26384911 592.27824024 -226.94921875 595.80859375 C-223.48909789 597.50534611 -220.1232779 599.32488114 -216.75 601.1875 C-212.35623343 603.56921722 -208.01208924 605.64575885 -203.33984375 607.41015625 C-201.0818812 608.27669208 -198.85634648 609.1808812 -196.62890625 610.12109375 C-180.9113069 616.75254952 -165.10555045 621.66207702 -148.5 625.5 C-147.54883301 625.72220215 -146.59766602 625.9444043 -145.61767578 626.17333984 C-132.01474164 629.31075094 -118.64321628 631.40540564 -104.70629883 632.28222656 C-102.5 632.5 -102.5 632.5 -100.32470703 633.00537109 C-96.17296186 633.73237505 -92.055796 633.72336712 -87.84765625 633.7734375 C-86.41423637 633.79216164 -86.41423637 633.79216164 -84.95185852 633.81126404 C-39.91648523 634.28314849 0.63425061 627.91068427 42.98364258 612.41333008 C45.1184551 611.63848447 47.25859099 610.88663325 49.40625 610.1484375 C61.61739437 605.82144504 72.81232846 599.8422681 84.078125 593.48828125 C85.06296875 592.93527344 86.0478125 592.38226562 87.0625 591.8125 C88.30193359 591.09513672 88.30193359 591.09513672 89.56640625 590.36328125 C90.52353516 589.93595703 90.52353516 589.93595703 91.5 589.5 C92.16 589.83 92.82 590.16 93.5 590.5 C82.16740263 597.76996813 70.37860297 604.17319961 58.5 610.5 C57.84483398 610.84901367 57.18966797 611.19802734 56.51464844 611.55761719 C50.52555356 614.7214737 44.52711354 617.35741009 38.12890625 619.578125 C35.6572741 620.44484891 33.23781763 621.3870576 30.8125 622.375 C19.1795016 627.05769666 7.62728556 631.2615405 -4.5 634.5 C-5.72589844 634.83902344 -6.95179688 635.17804687 -8.21484375 635.52734375 C-20.80292744 638.96990534 -33.37257694 641.56267656 -46.25 643.625 C-47.28423096 643.79580078 -48.31846191 643.96660156 -49.3840332 644.14257812 C-66.99430549 646.87213635 -84.81760002 646.71298837 -102.59448242 646.74023438 C-106.42713865 646.74997367 -110.25926482 646.78111996 -114.09179688 646.8125 C-127.13454995 646.86811166 -139.64416377 646.45120755 -152.45159912 643.8928833 C-155.44959936 643.31786684 -158.46329887 642.85811992 -161.48039246 642.39561462 C-170.94687972 640.92521723 -180.22163017 638.86845144 -189.5 636.5 C-190.3564209 636.28472656 -191.2128418 636.06945312 -192.09521484 635.84765625 C-204.22925697 632.77343838 -215.87614 629.1287124 -227.44335938 624.34375 C-229.42812349 623.5294878 -231.42153619 622.74385606 -233.421875 621.96875 C-270.89674703 607.41179701 -304.9000724 585.61477626 -334.5 558.5 C-335.50358694 557.58949168 -336.5075063 556.67934964 -337.51171875 555.76953125 C-346.05786817 548.01031514 -354.05893327 540.2241028 -361.29296875 531.203125 C-363.23234186 528.827822 -365.2351073 526.56623452 -367.3125 524.3125 C-385.75236131 503.74637237 -400.83910745 478.90789387 -412.03515625 453.75390625 C-413.13455953 451.31176511 -414.28368112 448.95215233 -415.5078125 446.57421875 C-417.44677873 442.7261448 -418.93365938 438.82742868 -420.3125 434.75 C-420.82893372 433.24462232 -421.34588185 431.73942104 -421.86328125 430.234375 C-422.26281006 429.06745117 -422.26281006 429.06745117 -422.67041016 427.87695312 C-423.49456996 425.51555822 -424.35636504 423.17144606 -425.23046875 420.828125 C-432.48632824 401.18812913 -436.90645262 381.20861704 -439.15185547 360.40771484 C-439.39873609 358.34575958 -439.6886738 356.28875407 -440.00830078 354.23681641 C-441.6949915 343.18364124 -441.8972387 332.28882871 -441.875 321.125 C-441.87478851 320.14388245 -441.87457703 319.16276489 -441.87435913 318.1519165 C-441.82291826 294.09953252 -440.00210784 270.51535239 -433.02880859 247.37744141 C-432.25157895 244.61802498 -431.76285559 241.81898473 -431.25 239 C-424.20961026 205.40169561 -408.1217118 173.1173052 -389.5 144.5 C-388.48292969 142.91445313 -388.48292969 142.91445313 -387.4453125 141.296875 C-382.50685774 133.72061108 -377.08570173 126.60169186 -371.5 119.5 C-370.87738281 118.68144531 -370.25476563 117.86289063 -369.61328125 117.01953125 C-355.6507639 98.93791984 -338.5866814 81.4460103 -320.5 67.5 C-318.91595818 66.20920229 -317.33263196 64.91752594 -315.75 63.625 C-297.78875773 49.36826395 -278.7908101 37.0029483 -258.4375 26.4375 C-257.53677765 25.9670929 -257.53677765 25.9670929 -256.61785889 25.48718262 C-249.4205165 21.74528503 -242.19844916 18.50039817 -234.59204102 15.68579102 C-231.62151297 14.54659996 -228.75731953 13.28244616 -225.875 11.9375 C-220.52050411 9.45784923 -215.07787697 7.4174103 -209.5 5.5 C-208.50959717 5.1582373 -207.51919434 4.81647461 -206.4987793 4.46435547 C-194.37329633 0.35036965 -182.11451208 -3.18236302 -169.4206543 -5.00415039 C-166.62273661 -5.47916258 -163.98553088 -6.15526968 -161.25390625 -6.91796875 C-153.22024135 -8.94897562 -145.09986675 -9.85156979 -136.875 -10.6875 C-136.03563904 -10.77305145 -135.19627808 -10.85860291 -134.33148193 -10.94674683 C-89.7445093 -15.36345481 -43.07313002 -13.18953656 0 0 Z " fill="#2A398E" transform="translate(586.5,88.5)"/>
<path d="M0 0 C46.86 0 93.72 0 142 0 C142 47.84849446 142 47.84849446 139.0625 61.0625 C137.84693965 66.7803569 136.73179105 72.45436787 135.9375 78.25 C135.22810029 83.20301602 133.98011859 87.40972508 132 92 C131.67 92 131.34 92 131 92 C131 68.9 131 45.8 131 22 C101.63 22 72.26 22 42 22 C42.0942627 28.20256592 42.18852539 34.40513184 42.28564453 40.7956543 C42.58397318 61.29480213 42.78366908 81.79403577 42.93261909 102.29478741 C43.02533101 114.72410118 43.15165607 127.1513547 43.35791016 139.5793457 C43.53765599 150.41525398 43.65352342 161.24967016 43.69359291 172.08702785 C43.7170092 177.82321612 43.7717788 183.55513714 43.90314102 189.28995323 C44.02596977 194.69637916 44.06289475 200.09681263 44.03593826 205.50450134 C44.04086331 207.48120623 44.07632392 209.45812529 44.14569855 211.43361855 C44.6276552 225.87432737 44.6276552 225.87432737 40.28541327 231.03955102 C35.36283416 235.51822044 29.77791936 238.76186605 24 242 C22.3018274 243.02486725 20.60796355 244.05691281 18.91879463 245.09655285 C2.62757033 255.1081563 -14.75476854 263.2737031 -33 269 C-34.67835938 269.53173828 -34.67835938 269.53173828 -36.390625 270.07421875 C-39.91001821 271.12920273 -43.44333869 272.07830423 -47 273 C-47.72058594 273.1944873 -48.44117188 273.38897461 -49.18359375 273.58935547 C-90.47785471 284.59142458 -134.47824469 284.30109014 -176.5625 278.5625 C-177.3769458 278.45252686 -178.1913916 278.34255371 -179.03051758 278.22924805 C-184.11772874 277.47031801 -188.88250693 276.19698578 -193.78735352 274.65795898 C-196.25053111 273.92550134 -198.63527623 273.53311781 -201.1875 273.25 C-207.50963171 272.27989396 -213.51839737 270.48300255 -219.625 268.625 C-220.59074951 268.33270508 -221.55649902 268.04041016 -222.55151367 267.73925781 C-228.83896126 265.78947876 -234.91889995 263.51390452 -241 261 C-242.47614279 260.41430567 -243.95269629 259.82964524 -245.4296875 259.24609375 C-277.71601176 246.22712418 -307.92610083 226.22027532 -332 201 C-331.01 200.67 -330.02 200.34 -329 200 C-326.14453125 201.51171875 -326.14453125 201.51171875 -322.8125 203.6875 C-312.4332271 210.4223307 -301.84181234 214.52912397 -290 218 C-289.26330078 218.2175293 -288.52660156 218.43505859 -287.76757812 218.65917969 C-253.57892951 228.25091028 -218.19140089 221.44261383 -187.625 204.625 C-178.51267079 199.43310461 -170.25393479 193.20167649 -162.75 185.875 C-159.97519478 183.39166592 -158.23907953 182.56358979 -154.5 182.5 C-151.78045203 182.709196 -149.10735292 183.12746903 -146.40625 183.51318359 C-141.93694701 184.06713641 -137.5302191 184.1444364 -133.03125 184.1328125 C-132.19267456 184.13376923 -131.35409912 184.13472595 -130.4901123 184.13571167 C-128.72192306 184.13638856 -126.95373127 184.13456876 -125.18554688 184.13037109 C-122.5350965 184.12507019 -119.88481981 184.13030479 -117.234375 184.13671875 C-95.71467373 184.21905526 -95.71467373 184.21905526 -74.625 180.375 C-73.65457764 180.11138672 -72.68415527 179.84777344 -71.68432617 179.57617188 C-30.03641526 167.90997559 -0.72767223 143.45092313 20.5625 106.25 C22.83205861 102.20872145 24.92413113 98.15173775 27 94 C16.44 94 5.88 94 -5 94 C-2.76100046 87.28300139 -2.76100046 87.28300139 -1.1953125 84.40625 C10.0896441 63.11408424 13.33738988 41.59649428 6.48608398 18.3449707 C4.91672065 13.32369314 3.01114018 8.56948493 0.76074219 3.81469727 C0 2 0 2 0 0 Z " fill="#F47822" transform="translate(643,406)"/>
<path d="M0 0 C0.31453125 0.76183594 0.6290625 1.52367187 0.953125 2.30859375 C1.38109375 3.34113281 1.8090625 4.37367188 2.25 5.4375 C2.66765625 6.44683594 3.0853125 7.45617187 3.515625 8.49609375 C10.74423934 25.55942813 19.15621627 41.9418549 30 57 C30.70576172 57.98758301 30.70576172 57.98758301 31.42578125 58.99511719 C37.31928948 67.19393569 43.48752333 74.9290247 50.421875 82.26953125 C52.82652659 84.81627589 55.13457298 87.42407462 57.4375 90.0625 C65.12228955 98.61337496 73.77216867 106.15818113 83 113 C84.08620236 113.82777757 85.17211705 114.65593269 86.2578125 115.484375 C95.09414276 122.16257846 104.26579853 128.09550533 113.80957031 133.7109375 C115.21593121 134.53857744 116.61922024 135.37147223 118.01855469 136.2109375 C129.21573016 142.92136141 140.92482037 148.07024099 153 153 C151.20691005 156.86010998 148.91976852 159.31437835 145.875 162.3125 C145.38 162.80032959 144.885 163.28815918 144.375 163.79077148 C141.0399482 167.05292303 137.62002647 170.18187016 134.0703125 173.20703125 C131.6172589 175.33146824 129.25296853 177.54188637 126.875 179.75 C113.00951419 192.33588863 98.31519336 202.69595089 81 210 C80.10539063 210.43054688 79.21078125 210.86109375 78.2890625 211.3046875 C51.7024398 223.61465801 19.03057237 219.65378232 -7.76953125 210.39453125 C-32.8400406 201.12424718 -54.60918723 182.2180502 -66.90332031 158.38916016 C-73.41691877 144.19902782 -77.19680599 129.92937498 -77.125 114.375 C-77.12016602 113.29629639 -77.11533203 112.21759277 -77.11035156 111.10620117 C-76.86721303 78.9657188 -63.45289469 55.38199828 -41 33 C-38.42242506 30.54231227 -35.74631124 28.26545891 -33 26 C-31.96409704 25.10523106 -30.93045802 24.2078379 -29.8984375 23.30859375 C-23.25438802 17.53221979 -16.50692641 11.93759268 -9.53076172 6.56542969 C-7.32106679 4.85849698 -5.18562993 3.18972773 -3.23046875 1.19140625 C-2 0 -2 0 0 0 Z " fill="#28378D" transform="translate(352,400)"/>
<path d="M0 0 C21.78 0 43.56 0 66 0 C66.04413477 32.26421264 66.08104622 64.52839587 66.10213066 96.79262964 C66.10463191 100.60630067 66.10722057 104.41997164 66.10986328 108.23364258 C66.1103879 108.99283931 66.11091252 109.75203604 66.11145304 110.53423873 C66.12014309 122.80863338 66.13590531 135.0830092 66.15430559 147.35739269 C66.17304367 159.96274262 66.18412497 172.56808272 66.18817699 185.173446 C66.19091396 192.94446167 66.19954184 200.71542408 66.21583293 208.48642335 C66.22770742 214.45670363 66.22890151 220.42693862 66.22621536 226.39723206 C66.22676369 228.83802428 66.23071658 231.27881861 66.23841095 233.71959877 C66.31768795 260.17449805 63.73101484 283.40783748 44.67578125 303.58203125 C33.27846575 313.88121124 21.07442857 319.0861484 6.1875 322.25 C5.41325684 322.4257959 4.63901367 322.6015918 3.84130859 322.78271484 C-6.57869368 324.80695021 -15.98892929 324 -27 324 C-27 304.86 -27 285.72 -27 266 C-23.37 265.34 -19.74 264.68 -16 264 C-9.55549011 261.77386141 -5.08080771 259.16161542 -2 253 C-1.07735075 250.23205226 -0.87134246 248.58155602 -0.8613348 245.72651386 C-0.85312313 244.4112808 -0.85312313 244.4112808 -0.84474558 243.06947738 C-0.84376747 242.10547883 -0.84278936 241.14148028 -0.84178162 240.14826965 C-0.83684364 239.12481829 -0.83190566 238.10136692 -0.82681805 237.04690188 C-0.81140234 233.60133797 -0.8030714 230.15579274 -0.79467773 226.71020508 C-0.78510241 224.24673802 -0.77509254 221.78327262 -0.76467896 219.31980896 C-0.74320568 214.00782123 -0.72476866 208.69583612 -0.70907402 203.38382912 C-0.68637689 195.70352765 -0.65823384 188.02325377 -0.62875474 180.3429757 C-0.58107692 167.88271537 -0.53781324 155.42244378 -0.49731445 142.9621582 C-0.4579605 130.85700605 -0.41653451 118.75186392 -0.37231445 106.64672852 C-0.36959018 105.90076779 -0.36686591 105.15480707 -0.36405908 104.38624147 C-0.35037962 100.64403544 -0.33665934 96.90182955 -0.32291877 93.15962374 C-0.20895099 62.10643548 -0.10295351 31.05322721 0 0 Z " fill="#29388D" transform="translate(695,439)"/>
<path d="M0 0 C5.76707546 4.25486186 11.1344281 8.93801281 16.4375 13.75 C16.94587402 14.20979248 17.45424805 14.66958496 17.97802734 15.14331055 C20.628952 17.58570054 22.95273155 20.02972577 25 23 C22.1956073 25.56862517 19.37165828 28.11375303 16.52783203 30.63867188 C15.49093572 31.56256671 14.45817944 32.49112489 13.42919922 33.42382812 C11.86164519 34.83968338 10.27697297 36.23383838 8.6875 37.625 C7.72199219 38.48351562 6.75648438 39.34203125 5.76171875 40.2265625 C3 42 3 42 0.484375 41.79296875 C-0.33546875 41.53128906 -1.1553125 41.26960938 -2 41 C-3.80837621 40.83943093 -5.62266813 40.73641036 -7.4375 40.6875 C-8.79681641 40.63142578 -8.79681641 40.63142578 -10.18359375 40.57421875 C-16.32877935 41.50324126 -21.05556996 46.59157823 -25.625 50.5625 C-26.23255127 51.08626221 -26.84010254 51.61002441 -27.46606445 52.1496582 C-31.94948602 56.03490079 -36.32373729 60.02788765 -40.67041016 64.06469727 C-44.70717548 67.79027006 -48.93036176 71.23613544 -53.20703125 74.6796875 C-57.33983689 78.11309526 -61.25926987 81.76284085 -65.1953125 85.41796875 C-68.1938015 88.17841615 -71.25983108 90.84213753 -74.37890625 93.46484375 C-76.9987744 95.94582732 -78.83493674 97.7738158 -79.328125 101.4375 C-79.30234375 102.283125 -79.2765625 103.12875 -79.25 104 C-79.22679687 105.2684375 -79.22679687 105.2684375 -79.203125 106.5625 C-79.01512019 108.81855769 -78.62330092 110.82850004 -78 113 C-80.69292516 115.46405087 -83.38988162 117.92338049 -86.09765625 120.37109375 C-87.80250191 121.91532138 -89.50088513 123.46683569 -91.18359375 125.03515625 C-92.72182772 126.43445296 -94.35303864 127.73046729 -96 129 C-100.68386836 127.43871055 -102.884822 123.71697375 -106 120 C-106.721875 119.18789063 -107.44375 118.37578125 -108.1875 117.5390625 C-125.20895622 97.99798283 -138.16910642 74.88890004 -148 51 C-148.30437988 50.2874707 -148.60875977 49.57494141 -148.92236328 48.84082031 C-151.42803299 42.70072421 -151.42803299 42.70072421 -150 39 C-148.04939583 37.33580603 -146.17784376 35.92371682 -144.0625 34.5 C-143.44640869 34.07348145 -142.83031738 33.64696289 -142.19555664 33.20751953 C-140.13928618 31.79145925 -138.07084356 30.39464975 -136 29 C-134.90316895 28.25508301 -134.90316895 28.25508301 -133.78417969 27.49511719 C-113.80747141 13.93856915 -93.65974825 1.55411343 -71 -7 C-70.27474121 -7.27537598 -69.54948242 -7.55075195 -68.80224609 -7.83447266 C-46.09425414 -16.12073373 -19.83655012 -14.47437314 0 0 Z " fill="#29388D" transform="translate(513,351)"/>
<path d="M0 0 C26.7614889 -0.12032643 26.7614889 -0.12032643 38.20898438 -0.14648438 C46.00616617 -0.16438594 53.80324182 -0.18551573 61.6003418 -0.22631836 C67.88974353 -0.25902344 74.17903134 -0.27687659 80.46851158 -0.28463173 C82.86256388 -0.29015523 85.25661026 -0.3009411 87.65061378 -0.31719017 C91.01566445 -0.33911233 94.38025023 -0.34196072 97.74536133 -0.34057617 C98.72504379 -0.351362 99.70472626 -0.36214783 100.71409607 -0.3732605 C110.06763514 -0.33188389 120.92859497 1.27882965 128 8 C131.84255348 13.72235523 131.48418841 19.47194839 131.50390625 26.1171875 C131.51389145 27.28831085 131.52387665 28.4594342 131.53416443 29.66604614 C131.54932503 32.13881913 131.55639086 34.61165324 131.5559082 37.08447266 C131.56246614 40.85552669 131.61696653 44.62394304 131.67382812 48.39453125 C131.68263159 50.80207437 131.68858487 53.20962994 131.69140625 55.6171875 C131.7129628 56.73825897 131.73451935 57.85933044 131.75672913 59.01437378 C131.70371823 65.10897857 131.22511109 69.70138358 127.00737 74.32395935 C115.74735338 83.72543771 100.90311622 81.63899341 87.109375 81.48828125 C84.5930451 81.47894361 82.07670605 81.471832 79.56036377 81.46684265 C73.64252843 81.44978341 67.72517662 81.41048598 61.80753827 81.3600952 C53.21243305 81.28851649 44.61716422 81.26264572 36.02183533 81.23105621 C24.01416847 81.182743 12.00772842 81.08687263 0 81 C0 54.27 0 27.54 0 0 Z " fill="#2A398E" transform="translate(447,774)"/>
<path d="M0 0 C12.41755077 6.20877538 23.98140588 22.59621882 28.87182617 35.25708008 C34.63319569 52.72654099 30.98927644 69.43508439 23.32421875 85.515625 C10.79926204 109.81692032 -8.34689013 130.29834254 -27 150 C-35.85050612 147.71873784 -43.85089081 144.04927096 -52 140 C-52.68545898 139.66194336 -53.37091797 139.32388672 -54.07714844 138.97558594 C-65.04444096 133.51995645 -75.08979288 127.18490016 -85 120 C-85.55558594 119.60280762 -86.11117188 119.20561523 -86.68359375 118.79638672 C-95.43042636 112.53299161 -103.4155203 105.62403193 -111 98 C-109.00090361 95.95280505 -106.98042262 93.94014594 -104.9375 91.9375 C-104.37611328 91.35677734 -103.81472656 90.77605469 -103.23632812 90.17773438 C-101.55054625 88.54975074 -100.0232483 87.18598471 -98 86 C-94.3203125 86.109375 -94.3203125 86.109375 -91 87 C-84.21100036 87.72781894 -80.67762983 85.94377172 -75.38500977 81.70727539 C-73.67548096 80.28363961 -71.99097291 78.83510436 -70.3125 77.375 C-69.70237061 76.84865967 -69.09224121 76.32231934 -68.46362305 75.7800293 C-63.7772421 71.7202124 -59.20360777 67.54900626 -54.63671875 63.35546875 C-52.0274059 61.02448261 -49.3518718 58.81672813 -46.625 56.625 C-41.78169704 52.72268162 -37.2400872 48.57316436 -32.71557617 44.31225586 C-29.58534354 41.38697614 -26.40263775 38.71949721 -22.9375 36.1875 C-18.94882534 33.15933339 -16.91354397 30.65906358 -15 26 C-14.65083108 21.87980672 -14.99443467 19.02226132 -16 15 C-10.72 10.05 -5.44 5.1 0 0 Z " fill="#29388D" transform="translate(543,389)"/>
<path d="M0 0 C1.97767829 0.00426026 3.95536161 0.00657981 5.93304443 0.00706482 C10.05488138 0.01319488 14.17616735 0.03572754 18.29785156 0.0715332 C23.56204757 0.11692124 28.82574856 0.13156823 34.09012222 0.13527012 C38.16523037 0.13971207 42.24023638 0.15503759 46.31529999 0.17414665 C48.25603148 0.18297729 50.19677364 0.18973202 52.13751984 0.19430733 C54.85260562 0.2034196 57.56725967 0.22586697 60.28222656 0.25219727 C61.07101196 0.25286194 61.85979736 0.25352661 62.67248535 0.25421143 C70.15156576 0.35357071 77.27233648 1.40812838 83.734375 5.37109375 C84.54648437 5.85191406 85.35859375 6.33273437 86.1953125 6.828125 C89.69491243 9.62654155 91.21297155 12.26695777 91.72013855 16.7414093 C91.71347672 17.93831894 91.70681488 19.13522858 91.69995117 20.3684082 C91.70038925 21.03238113 91.70082733 21.69635406 91.70127869 22.38044739 C91.69919923 24.56122904 91.67590961 26.74122871 91.65234375 28.921875 C91.64674476 30.43930135 91.64247609 31.95673315 91.63948059 33.47416687 C91.62805558 37.45764275 91.59860895 41.44078769 91.56536865 45.4241333 C91.52920518 50.2090496 91.51549542 54.99407688 91.49800873 59.77909088 C91.46896981 67.03915496 91.41146713 74.29849366 91.359375 81.55859375 C79.479375 81.55859375 67.599375 81.55859375 55.359375 81.55859375 C55.359375 71.98859375 55.359375 62.41859375 55.359375 52.55859375 C35.889375 52.55859375 16.419375 52.55859375 -3.640625 52.55859375 C-3.640625 62.12859375 -3.640625 71.69859375 -3.640625 81.55859375 C-15.520625 81.55859375 -27.400625 81.55859375 -39.640625 81.55859375 C-39.88127786 64.90898134 -39.88127786 64.90898134 -39.93359375 57.77734375 C-39.96937522 52.92277367 -40.01156778 48.06888662 -40.09326172 43.21484375 C-40.15875717 39.29848278 -40.19439364 35.38285479 -40.20988846 31.46598816 C-40.22092127 29.97646046 -40.24246637 28.48697007 -40.27500534 26.99775696 C-40.58443616 12.24065516 -40.58443616 12.24065516 -35.73861694 7.11927795 C-25.00439134 -0.86585106 -12.73005086 -0.13815925 0 0 Z " fill="#2B3A8E" transform="translate(343.640625,773.44140625)"/>
<path d="M0 0 C0.94788391 -0.00137466 1.89576782 -0.00274933 2.87237549 -0.00416565 C4.42172791 0.00122726 4.42172791 0.00122726 6.00238037 0.00672913 C7.09536438 0.0065831 8.18834839 0.00643707 9.31445312 0.00628662 C12.92887351 0.00698355 16.54324242 0.01476576 20.15765381 0.02259827 C22.66300427 0.02446322 25.1683551 0.02588676 27.67370605 0.02688599 C33.59513092 0.03031464 39.51653925 0.038197 45.43795562 0.04823548 C52.84191423 0.0605145 60.24587512 0.06588149 67.64984131 0.07142639 C80.8555817 0.08215292 94.06129998 0.09974481 107.26702881 0.12025452 C107.26702881 7.38025452 107.26702881 14.64025452 107.26702881 22.12025452 C75.91702881 22.12025452 44.56702881 22.12025452 12.26702881 22.12025452 C12.26702881 34.33025452 12.26702881 46.54025452 12.26702881 59.12025452 C31.73702881 59.12025452 51.20702881 59.12025452 71.26702881 59.12025452 C71.26702881 56.81025452 71.26702881 54.50025452 71.26702881 52.12025452 C57.07702881 52.12025452 42.88702881 52.12025452 28.26702881 52.12025452 C28.26702881 51.46025452 28.26702881 50.80025452 28.26702881 50.12025452 C29.12836426 49.7027594 29.98969971 49.28526428 30.87713623 48.8551178 C34.19228377 47.15850718 37.33592658 45.31638114 40.50531006 43.36244202 C41.07154587 43.01392181 41.63778168 42.66540161 42.22117615 42.30632019 C43.40590059 41.57638839 44.58987846 40.84524357 45.77313232 40.1129303 C47.59021123 38.98864496 49.40986883 37.8686276 51.22991943 36.74916077 C56.53133486 33.79348036 56.53133486 33.79348036 61.26702881 30.12025452 C62.70992667 30.02729636 64.15732665 30.00278939 65.60321045 30.00672913 C67.00391785 30.0069104 67.00391785 30.0069104 68.43292236 30.00709534 C69.42102905 30.0122113 70.40913574 30.01732727 71.42718506 30.02259827 C72.78209045 30.02410889 72.78209045 30.02410889 74.16436768 30.02565002 C77.55276755 30.0308994 80.9411494 30.04486053 84.32952881 30.05775452 C91.89890381 30.07837952 99.46827881 30.09900452 107.26702881 30.12025452 C107.26702881 46.95025452 107.26702881 63.78025452 107.26702881 81.12025452 C79.21760148 81.28068975 79.21760148 81.28068975 67.23187256 81.31556702 C59.06363392 81.33944866 50.89557379 81.36705246 42.72747803 81.42201233 C36.13983976 81.46631659 29.55234357 81.48941401 22.96455002 81.49976349 C20.45522398 81.50713604 17.94590812 81.52153282 15.43666458 81.54317474 C11.91325564 81.57234636 8.39063736 81.57620462 4.86712646 81.57435608 C3.83709503 81.58873718 2.8070636 81.60311829 1.74581909 81.61793518 C-5.66476268 81.57605449 -13.08408493 80.51414421 -18.70914268 75.2821846 C-22.32025702 71.21442133 -23.85003878 68.54917396 -23.92584229 63.06312561 C-23.94993668 61.48040359 -23.94993668 61.48040359 -23.97451782 59.8657074 C-24.01899874 55.02299106 -24.06005789 50.18041275 -24.08306885 45.33753967 C-24.09960139 42.78666544 -24.12685519 40.23583702 -24.1651001 37.68519592 C-24.22000809 34.00445042 -24.24176843 30.32479257 -24.25640869 26.64369202 C-24.27907806 25.51007233 -24.30174744 24.37645264 -24.32510376 23.20848083 C-24.30670972 16.27652898 -23.42912808 11.40736484 -18.73297119 6.12025452 C-16.19781494 4.28041077 -16.19781494 4.28041077 -13.67047119 3.18275452 C-12.83386963 2.80248108 -11.99726807 2.42220764 -11.13531494 2.03041077 C-7.32956042 0.5885558 -4.0737705 -0.00456701 0 0 Z " fill="#2B3A8E" transform="translate(184.73297119140625,773.8797454833984)"/>
<path d="M0 0 C0.97175171 -0.00137466 1.94350342 -0.00274933 2.94470215 -0.00416565 C4.5415258 0.00122726 4.5415258 0.00122726 6.17060852 0.00672913 C7.29270721 0.0065831 8.41480591 0.00643707 9.57090759 0.00628662 C13.2881614 0.00698454 17.0053654 0.01477134 20.72261047 0.02259827 C23.29665093 0.02446287 25.87069173 0.02588658 28.44473267 0.02688599 C34.532647 0.03031694 40.62054072 0.03820233 46.70844728 0.04823548 C53.63945866 0.0594103 60.5704709 0.06491052 67.50148904 0.06993091 C81.75879984 0.0803853 96.0160945 0.0981775 110.27339172 0.12025452 C110.27339172 7.05025452 110.27339172 13.98025452 110.27339172 21.12025452 C78.92339172 21.12025452 47.57339172 21.12025452 15.27339172 21.12025452 C15.27339172 33.33025452 15.27339172 45.54025452 15.27339172 58.12025452 C35.07339172 58.12025452 54.87339172 58.12025452 75.27339172 58.12025452 C75.27339172 55.81025452 75.27339172 53.50025452 75.27339172 51.12025452 C60.75339172 51.12025452 46.23339172 51.12025452 31.27339172 51.12025452 C32.6617276 48.34358277 34.40162278 47.85282628 37.14839172 46.43275452 C41.97433389 43.86390675 46.59237484 41.09545864 51.17964172 38.12416077 C52.20057922 37.4628717 53.22151672 36.80158264 54.27339172 36.12025452 C54.9202594 35.53735657 55.56712708 34.95445862 56.2335968 34.35389709 C65.87049452 26.6183359 77.22435294 28.35775532 88.96089172 28.68275452 C100.00557922 28.89931702 100.00557922 28.89931702 111.27339172 29.12025452 C111.27339172 45.95025452 111.27339172 62.78025452 111.27339172 80.12025452 C83.43342151 80.24058094 83.43342151 80.24058094 71.5448761 80.26673889 C63.44024186 80.28465587 55.33570875 80.30537548 47.2311554 80.34657288 C40.6953922 80.37977977 34.15969726 80.39712001 27.62385368 80.40488625 C25.13325213 80.41041923 22.6426564 80.42122376 20.15210152 80.43744469 C16.65732628 80.45929602 13.16299993 80.46221815 9.66816711 80.46083069 C8.64389114 80.47161652 7.61961517 80.48240234 6.56430054 80.49351501 C-1.03416377 80.46098081 -8.8421193 79.54923336 -14.66410828 74.18275452 C-15.48201843 73.45765686 -15.48201843 73.45765686 -16.31645203 72.71791077 C-19.37388808 69.25394582 -19.98053886 66.27340466 -20.01713562 61.71253967 C-20.02989532 60.63106659 -20.04265503 59.54959351 -20.05580139 58.43534851 C-20.05802704 57.27175812 -20.06025269 56.10816772 -20.06254578 54.90931702 C-20.06920258 53.70842438 -20.07585938 52.50753174 -20.0827179 51.27024841 C-20.09284272 48.73003165 -20.09753497 46.18978831 -20.09721375 43.64955139 C-20.10158386 39.76694303 -20.13789943 35.88547403 -20.17582703 32.00306702 C-20.18169579 29.5343209 -20.18566478 27.06556939 -20.18754578 24.59681702 C-20.20191681 23.43727509 -20.21628784 22.27773315 -20.23109436 21.08305359 C-20.19554084 14.79787703 -20.01421929 10.86680702 -15.72660828 6.12025452 C-13.69145203 4.47572327 -13.69145203 4.47572327 -11.66410828 3.30775452 C-10.99250671 2.9094342 -10.32090515 2.51111389 -9.62895203 2.10072327 C-6.31073901 0.39051491 -3.67066209 -0.0040029 0 0 Z " fill="#2A398E" transform="translate(609.7266082763672,774.8797454833984)"/>
<path d="M0 0 C7.14535148 6.00103076 13.29962118 13.39836628 15.09765625 22.76171875 C15.85718303 35.95628862 14.29536092 45.17040948 6.09765625 55.76171875 C-0.70624047 63.1830061 -9.52303678 69.30007514 -19.83886719 69.8684082 C-34.66868798 70.28664247 -45.94492967 69.60924916 -57.58203125 59.4140625 C-65.65730525 51.2788829 -70.01713878 42.05305225 -70.40234375 30.51171875 C-69.80065911 18.58886261 -65.20904759 9.50818685 -56.46484375 1.44921875 C-40.52701377 -11.93430125 -16.92055438 -12.19139762 0 0 Z " fill="#2C3B8F" transform="translate(755.90234375,330.23828125)"/>
<path d="M0 0 C5.24478771 4.50260077 7.72840571 10.37271712 9.875 16.8125 C10.66309266 28.07834922 10.3864807 38.53633723 3 47.75 C-3.80169602 55.34846613 -14.13624524 59.1842458 -24.1015625 60.08007812 C-27.38417533 60.23781925 -30.65118368 60.30185919 -33.9375 60.3125 C-34.98655518 60.31862305 -36.03561035 60.32474609 -37.11645508 60.33105469 C-48.71291465 60.14417754 -59.16282938 57.04259688 -67.9453125 49.18359375 C-75.29968687 41.21943457 -76.78985587 33.13211515 -76.37890625 22.55859375 C-75.79113017 13.88663586 -73.35644034 7.23300469 -67.2890625 0.89453125 C-50.39568294 -13.83222528 -17.85532354 -12.25194558 0 0 Z " fill="#F47924" transform="translate(776.125,879.1875)"/>
<path d="M0 0 C45.87 0 91.74 0 139 0 C139 0.66 139 1.32 139 2 C138.42636719 2.29390625 137.85273437 2.5878125 137.26171875 2.890625 C129.77903557 6.84202674 122.67170212 11.29401583 115.55151367 15.86035156 C114.76236572 16.3653418 113.97321777 16.87033203 113.16015625 17.390625 C112.45511963 17.84469727 111.75008301 18.29876953 111.02368164 18.76660156 C101.2173378 24.743396 100.29759156 22 84 22 C84 41.47 84 60.94 84 81 C72.45 81 60.9 81 49 81 C49 61.53 49 42.06 49 22 C32.83 22 16.66 22 0 22 C0 14.74 0 7.48 0 0 Z " fill="#2C3A8F" transform="translate(875,774)"/>
<path d="M0 0 C5.94 0 11.88 0 18 0 C18 22.11 18 44.22 18 67 C-7 67 -7 67 -14.0625 60.6875 C-16.7265625 56.78515625 -16.7265625 56.78515625 -17.90332031 54.82470703 C-19.41978745 52.30153798 -21.17511013 49.98084768 -22.9375 47.625 C-23.55238281 46.75488281 -24.16726563 45.88476562 -24.80078125 44.98828125 C-28.1247164 40.47174415 -31.69070994 36.15840884 -35.25756836 31.83251953 C-35.78358643 31.1929834 -36.30960449 30.55344727 -36.8515625 29.89453125 C-37.31385254 29.33612549 -37.77614258 28.77771973 -38.25244141 28.20239258 C-40.90671433 24.85729674 -43.43786434 21.41618088 -46 18 C-46 34.17 -46 50.34 -46 67 C-51.61 67 -57.22 67 -63 67 C-63 45.22 -63 23.44 -63 1 C-38 1 -38 1 -33 5.3125 C-31.96220306 7.1879097 -30.96267594 9.08494411 -30 11 C-28.58316581 12.80420833 -27.12256161 14.5747152 -25.625 16.3125 C-20.60476208 22.43306404 -15.81516863 28.71679216 -11 35 C-7.37 39.62 -3.74 44.24 0 49 C0 32.83 0 16.66 0 0 Z " fill="#F47A25" transform="translate(465,871)"/>
<path d="M0 0 C8.25 0 16.5 0 25 0 C33.23193614 8.58074699 33.23193614 8.58074699 35.29296875 12.40234375 C37.70608366 16.61813105 40.45514026 20.14114221 43.6875 23.75 C48.27531333 29.05271086 52.57084393 34.53982725 56.80859375 40.125 C58.83280478 42.7806494 60.91405128 45.3925641 63 48 C63.33 32.49 63.66 16.98 64 1 C69.61 1 75.22 1 81 1 C81 22.78 81 44.56 81 67 C72.75 67 64.5 67 56 67 C47.35038737 58.07136761 47.35038737 58.07136761 45.0703125 54.03125 C42.15429422 49.13308939 38.79268268 44.85148792 35.125 40.5 C34.05516434 39.19444868 32.98737597 37.88721639 31.921875 36.578125 C31.42494141 35.97033203 30.92800781 35.36253906 30.41601562 34.73632812 C27.24621212 30.84949321 24.10138868 26.94166641 21 23 C20.43539062 22.29359375 19.87078125 21.5871875 19.2890625 20.859375 C18 19 18 19 18 17 C17.34 17 16.68 17 16 17 C16.16265854 17.72809372 16.32531708 18.45618744 16.49290466 19.2063446 C16.96116244 21.78603875 17.12089062 24.08383004 17.11352539 26.69848633 C17.11344986 27.59904251 17.11337433 28.49959869 17.11329651 29.42744446 C17.10813522 30.3859581 17.10297394 31.34447174 17.09765625 32.33203125 C17.0962413 33.32377853 17.09482635 34.31552582 17.09336853 35.33732605 C17.08778418 38.49574843 17.07523452 41.65409915 17.0625 44.8125 C17.05748298 46.95768127 17.05292042 49.10286365 17.04882812 51.24804688 C17.03781987 56.4987254 17.02056597 61.74935056 17 67 C11.39 67 5.78 67 0 67 C0 44.89 0 22.78 0 0 Z " fill="#F47924" transform="translate(805,871)"/>
<path d="M0 0 C0.99 0 1.98 0 3 0 C3 331.98 3 663.96 3 1006 C2.01 1006 1.02 1006 0 1006 C0 674.02 0 342.04 0 0 Z " fill="#1F1F24" transform="translate(0,0)"/>
<path d="M0 0 C43.23 0 86.46 0 131 0 C131 7.26 131 14.52 131 22 C87.77 22 44.54 22 0 22 C0 14.74 0 7.48 0 0 Z " fill="#2B3A8F" transform="translate(733,833)"/>
<path d="M0 0 C43.23 0 86.46 0 131 0 C131 7.26 131 14.52 131 22 C87.77 22 44.54 22 0 22 C0 14.74 0 7.48 0 0 Z " fill="#2C3B8F" transform="translate(733,804)"/>
<path d="M0 0 C6.6 0 13.2 0 20 0 C20.01458252 1.39758545 20.02916504 2.7951709 20.04418945 4.23510742 C20.10220831 9.42563322 20.17944163 14.61572685 20.26245117 19.8059082 C20.29568351 22.0512795 20.32372069 24.296734 20.34643555 26.54223633 C20.38001202 29.77200743 20.43233073 33.00101727 20.48828125 36.23046875 C20.49467117 37.23272995 20.5010611 38.23499115 20.50764465 39.2676239 C20.62196429 46.13800826 20.62196429 46.13800826 24 52 C30.51278987 56.26410454 37.49341355 55.72255912 45 55 C48.89824177 53.94458083 52.03899198 52.63707296 54.17333984 49.0012207 C55.39388642 44.56998057 55.35889601 40.24565749 55.4140625 35.66796875 C55.43342865 34.67622147 55.4527948 33.68447418 55.4727478 32.66267395 C55.53238453 29.5043693 55.57886555 26.3460279 55.625 23.1875 C55.6631944 21.04230208 55.70224698 18.89711925 55.7421875 16.75195312 C55.83807313 11.50142512 55.92216312 6.25082533 56 1 C62.27 1 68.54 1 75 1 C75.14895735 7.81346191 75.25750703 14.62596419 75.32958984 21.44067383 C75.35965622 23.75594608 75.40052117 26.07110543 75.45263672 28.38598633 C75.52589659 31.72505629 75.55955923 35.06261327 75.5859375 38.40234375 C75.61690521 39.42770737 75.64787292 40.45307098 75.67977905 41.50950623 C75.68316271 48.82906104 73.90063456 53.51397615 69 59 C66.46944109 61.16572501 64.03486028 62.62419667 61 64 C60.1440625 64.391875 59.288125 64.78375 58.40625 65.1875 C44.80826858 70.34041927 27.21652083 70.3412118 13.828125 64.6171875 C7.00804035 60.71730484 2.22962368 55.639973 0 48 C-0.394568 44.26633971 -0.3502559 40.56730817 -0.29296875 36.81640625 C-0.28872391 35.76090073 -0.28447906 34.7053952 -0.28010559 33.61790466 C-0.26339049 30.26583729 -0.22575088 26.9143839 -0.1875 23.5625 C-0.17244393 21.28190976 -0.15875714 19.00131004 -0.14648438 16.72070312 C-0.11351034 11.14690093 -0.06177702 5.57355436 0 0 Z " fill="#F47A26" transform="translate(304,871)"/>
<path d="M0 0 C42.9 0 85.8 0 130 0 C130 6.93 130 13.86 130 21 C87.1 21 44.2 21 0 21 C0 14.07 0 7.14 0 0 Z " fill="#28378D" transform="translate(733,775)"/>
<path d="M0 0 C19.47 0 38.94 0 59 0 C59 12.21 59 24.42 59 37 C39.53 37 20.06 37 0 37 C0 24.79 0 12.58 0 0 Z " fill="#FCFCFD" transform="translate(483,796)"/>
<path d="M0 0 C1.01642578 -0.01611328 2.03285156 -0.03222656 3.08007812 -0.04882812 C11.33880348 -0.05409181 18.40227541 1.71742514 26.1875 4.3125 C25.65634894 8.82728398 23.82129708 11.65916857 21.1875 15.3125 C13.6229841 14.42997314 13.6229841 14.42997314 11.29956055 13.80322266 C7.82378803 12.99565096 4.29980949 13.12803143 0.75 13.125 C-0.00087891 13.11275391 -0.75175781 13.10050781 -1.52539062 13.08789062 C-7.02643418 13.073376 -10.70594879 14.00844449 -15.4375 16.9375 C-20.66326419 22.16326419 -21.03802125 27.71121196 -21.25 34.8125 C-21.09951925 42.00691282 -20.21299474 47.02169864 -14.875 52.1875 C-9.73446025 54.99143078 -5.38621881 55.63416866 0.4375 55.5625 C1.19458252 55.55863281 1.95166504 55.55476562 2.73168945 55.55078125 C8.14590019 55.46701136 12.9408146 54.68867978 18.1875 53.3125 C20.1675 53.3125 22.1475 53.3125 24.1875 53.3125 C24.1875 57.2725 24.1875 61.2325 24.1875 65.3125 C8.83124598 70.11132938 -10.92751605 70.99796175 -25.8125 64.3125 C-32.98042121 60.08499611 -38.50892053 54.67004832 -40.91796875 46.6171875 C-42.98285122 37.77248884 -43.64215364 26.35116522 -39.125 18.2265625 C-38.4753125 17.27910156 -38.4753125 17.27910156 -37.8125 16.3125 C-37.338125 15.61898437 -36.86375 14.92546875 -36.375 14.2109375 C-27.23005268 2.4719907 -14.0518874 -0.0440498 0 0 Z " fill="#F47B26" transform="translate(543.8125,870.6875)"/>
<path d="M0 0 C1.28131554 -0.00945648 1.28131554 -0.00945648 2.58851624 -0.019104 C3.96673805 -0.01303131 3.96673805 -0.01303131 5.37280273 -0.00683594 C6.79096535 -0.00970612 6.79096535 -0.00970612 8.23777771 -0.01263428 C10.23583238 -0.01399512 12.23389592 -0.01030572 14.23193359 -0.00195312 C17.29797101 0.00875962 20.36342406 -0.00185798 23.42944336 -0.01464844 C25.36889778 -0.01332706 27.30835184 -0.01076511 29.24780273 -0.00683594 C30.16864151 -0.0108844 31.08948029 -0.01493286 32.03822327 -0.019104 C32.88928146 -0.01279968 33.74033966 -0.00649536 34.6171875 0 C35.36758804 0.00159119 36.11798859 0.00318237 36.89112854 0.00482178 C38.74389648 0.25878906 38.74389648 0.25878906 40.74389648 2.25878906 C40.98339844 4.5144043 40.98339844 4.5144043 40.98217773 7.31738281 C40.99522949 8.33856201 41.00828125 9.35974121 41.02172852 10.41186523 C41.03316895 11.4957251 41.04460938 12.57958496 41.05639648 13.69628906 C41.23644385 21.78828553 41.41707915 28.22501217 45.78295898 35.20800781 C47.04663811 37.90488399 46.41354215 39.42286595 45.74389648 42.25878906 C38.32929707 42.28191789 30.91470538 42.29970691 23.50007725 42.31060123 C20.057493 42.31582888 16.61493336 42.32292437 13.17236328 42.33422852 C9.21834605 42.34713141 5.26433893 42.35201824 1.31030273 42.35644531 C-0.55216347 42.36418724 -0.55216347 42.36418724 -2.45225525 42.37208557 C-4.16391624 42.37219887 -4.16391624 42.37219887 -5.91015625 42.37231445 C-6.92053452 42.37453506 -7.93091278 42.37675568 -8.97190857 42.37904358 C-11.25610352 42.25878906 -11.25610352 42.25878906 -12.25610352 41.25878906 C-11.95660327 37.51503597 -11.46930978 34.67256308 -9.74047852 31.31738281 C-6.95586392 25.02770581 -7.78193094 17.72083728 -7.72875977 10.97949219 C-7.7068457 9.88958984 -7.68493164 8.7996875 -7.66235352 7.67675781 C-7.65526367 6.68442139 -7.64817383 5.69208496 -7.64086914 4.66967773 C-7.45041016 3.47628784 -7.45041016 3.47628784 -7.25610352 2.25878906 C-4.16204432 0.19608293 -3.50094528 0.00741572 0 0 Z " fill="#DDDFEC" transform="translate(711.256103515625,338.7412109375)"/>
<path d="M0 0 C22.77 0 45.54 0 69 0 C69 3.63 69 7.26 69 11 C60.75 11 52.5 11 44 11 C44 29.15 44 47.3 44 66 C37.73 66 31.46 66 25 66 C25 47.85 25 29.7 25 11 C16.75 11 8.5 11 0 11 C0 7.37 0 3.74 0 0 Z " fill="#F47721" transform="translate(578,872)"/>
<path d="M0 0 C5.94 0 11.88 0 18 0 C19.258125 2.495625 20.51625 4.99125 21.8125 7.5625 C22.20284424 8.33408447 22.59318848 9.10566895 22.99536133 9.90063477 C31.00520068 25.85727589 34.08322069 43.49995377 29 61 C28.505 62.75763672 28.505 62.75763672 28 64.55078125 C25.5158284 72.88566364 22.09928364 79.91894932 17 87 C16.5978125 87.73605469 16.195625 88.47210938 15.78125 89.23046875 C14.32181179 91.57398973 13.44381836 92.66942739 11 94 C5.59886661 94.57926753 0.40752263 94.40460086 -5 94 C-3.60266569 90.35103694 -1.9776968 86.90925369 -0.1875 83.4375 C9.73693467 63.58863067 14.1491483 40.95486166 8.0625 19.0078125 C5.76680015 12.50895632 3.08333994 6.16667988 0 0 Z " fill="#F47A25" transform="translate(611,406)"/>
<path d="M0 0 C5.49480185 5.26810079 7.08012798 10.14397347 7.39331055 17.63598633 C7.53407366 24.37006265 7.39385393 29.35280452 2.60546875 34.51953125 C2.07566406 35.00808594 1.54585937 35.49664063 1 36 C0.37544922 36.77923828 0.37544922 36.77923828 -0.26171875 37.57421875 C-6.51223771 42.70104891 -16.4565246 41.51679058 -24 41 C-29.28638183 40.01938954 -32.39616621 36.92460055 -35.73828125 32.9140625 C-40.29517703 26.00112463 -39.7789805 17.94083186 -39 10 C-37.15771422 4.77003995 -33.70759601 0.9142261 -29 -2 C-19.55513525 -5.7779459 -8.83118558 -5.05441464 0 0 Z " fill="#FEFCFB" transform="translate(759,886)"/>
<path d="M0 0 C6.6 0 13.2 0 20 0 C20.06790178 7.5889816 20.12288859 15.17784931 20.15543652 22.76706123 C20.17106162 26.29143732 20.19224144 29.81559394 20.22631836 33.33984375 C20.26528952 37.39585421 20.27973523 41.4516358 20.29296875 45.5078125 C20.30845261 46.76739777 20.32393646 48.02698303 20.33988953 49.32473755 C20.34011612 50.50550873 20.34034271 51.68627991 20.34057617 52.90283203 C20.34723801 53.93763702 20.35389984 54.97244202 20.36076355 56.03860474 C19.62746194 62.05804855 16.55402161 66.17048183 12 70 C5.73372907 73.49706442 0.12768225 73.35853793 -6.9375 73.1875 C-8.00291016 73.17396484 -9.06832031 73.16042969 -10.16601562 73.14648438 C-12.77756391 73.11135144 -15.38884957 73.05755189 -18 73 C-18 69.37 -18 65.74 -18 62 C-17.02417969 61.95101562 -16.04835937 61.90203125 -15.04296875 61.8515625 C-13.77066406 61.77679687 -12.49835938 61.70203125 -11.1875 61.625 C-9.29064453 61.52058594 -9.29064453 61.52058594 -7.35546875 61.4140625 C-3.87244766 61.23897061 -3.87244766 61.23897061 -1 59 C-0.5220608 56.41783979 -0.5220608 56.41783979 -0.56762695 53.35693359 C-0.54783279 52.17586029 -0.52803864 50.99478699 -0.50764465 49.77792358 C-0.49805977 47.85757797 -0.49805977 47.85757797 -0.48828125 45.8984375 C-0.46135445 43.93833237 -0.46135445 43.93833237 -0.43388367 41.93862915 C-0.38630897 38.46330801 -0.3565485 34.98805211 -0.33044434 31.51251221 C-0.30067606 27.96654367 -0.25413309 24.42080016 -0.20898438 20.875 C-0.12286659 13.91677947 -0.05710945 6.95851844 0 0 Z " fill="#F47D2A" transform="translate(264,887)"/>
<path d="M0 0 C3.96 0 7.92 0 12 0 C20.50040227 14.15937794 24.17504869 28.33990924 24.1875 44.9375 C24.19974609 45.79279297 24.21199219 46.64808594 24.22460938 47.52929688 C24.25434434 60.52347526 19.08566257 71.74434168 13 83 C12.505 84.06089844 12.01 85.12179687 11.5 86.21484375 C9.58571615 89.65789596 8.21950923 91.69527546 5 94 C-1.25186999 95.32031344 -7.69778943 94.62895045 -14 94 C-11.73227322 89.33937495 -9.35897555 84.84651692 -6.625 80.4375 C-2.57571003 73.55283996 0.25586869 66.47321062 3 59 C3.62455078 57.49759766 3.62455078 57.49759766 4.26171875 55.96484375 C9.66944149 41.56322424 9.05992976 21.73953317 2.9375 7.5625 C1.86593034 5.04330038 0.86677038 2.60031114 0 0 Z " fill="#F47A26" transform="translate(586,406)"/>
<path d="M0 0 C0.70226141 1.24176695 1.38629109 2.49385599 2.0625 3.75 C2.44535156 4.44609375 2.82820312 5.1421875 3.22265625 5.859375 C4.14864634 8.40933765 3.95113045 9.49483673 3 12 C2.505 12.78375 2.01 13.5675 1.5 14.375 C-1.32039853 19.31069743 -1.14006751 24.72920681 -1.24609375 30.3046875 C-1.27903194 31.7070375 -1.31224359 33.10938109 -1.34570312 34.51171875 C-1.39298363 36.69250147 -1.43746858 38.8732582 -1.47680664 41.05419922 C-1.73525891 54.75062196 -3.13367587 66.55330386 -13 77 C-22.01953644 84.84307517 -34.15403394 87.29210477 -45.60668945 89.56860352 C-52.01477535 90.8675496 -58.23785066 92.59342568 -63.75 96.25 C-67 98 -67 98 -69.125 98.0625 C-71.95590988 96.45831774 -73.89185922 94.45949757 -76 92 C-76 91.01 -76 90.02 -76 89 C-67.81823393 81.95405557 -55.43796162 78.51408525 -44.9375 77 C-35.21538335 75.5548205 -25.71321669 73.25197527 -19.33203125 65.35546875 C-13.91355129 55.77381651 -14.7874799 46.57426052 -15.13696289 35.91674805 C-15.46400264 25.09161523 -15.15315074 15.91788543 -8.7109375 6.73828125 C-7.55464844 5.53751953 -7.55464844 5.53751953 -6.375 4.3125 C-5.59898437 3.48363281 -4.82296875 2.65476562 -4.0234375 1.80078125 C-2 0 -2 0 0 0 Z " fill="#2F3E91" transform="translate(627,277)"/>
<path d="M0 0 C6.27 0 12.54 0 19 0 C19 21.78 19 43.56 19 66 C12.73 66 6.46 66 0 66 C0 44.22 0 22.44 0 0 Z " fill="#F47721" transform="translate(661,872)"/>
<path d="M0 0 C3.48802155 1.36117914 5.28102462 3.04750246 7.5625 6 C7.59765625 8.3125 7.59765625 8.3125 6.5625 11 C4.45879275 13.09492961 2.43064528 14.90901664 0.125 16.75 C-1.16236299 17.81270713 -2.44881665 18.87651675 -3.734375 19.94140625 C-4.36794922 20.46105957 -5.00152344 20.98071289 -5.65429688 21.51611328 C-8.04288752 23.50377127 -10.33582383 25.58662703 -12.625 27.6875 C-15.91692205 30.6791816 -19.28341307 33.52524423 -22.75 36.3125 C-26.97161794 39.72432945 -30.97709216 43.29427325 -34.9375 47 C-39.0662179 50.84169473 -43.21564442 54.64427013 -47.5 58.3125 C-48.35722656 59.05113281 -49.21445312 59.78976562 -50.09765625 60.55078125 C-52.4375 62 -52.4375 62 -54.57421875 61.87109375 C-57.58395745 60.46402513 -59.34960644 58.5518699 -61.4375 56 C-61.875 53.5859375 -61.875 53.5859375 -61.4375 51 C-59.453125 48.9296875 -59.453125 48.9296875 -56.6875 46.875 C-52.35845211 43.53210588 -48.2512792 40.10343566 -44.25 36.375 C-38.66287573 31.20033021 -32.97769775 26.16845016 -27.1875 21.22265625 C-25.97912206 20.19015637 -24.77078991 19.15760289 -23.5625 18.125 C-22.95889648 17.60953613 -22.35529297 17.09407227 -21.73339844 16.56298828 C-17.25827565 12.73078745 -12.86739478 8.82056911 -8.5234375 4.83984375 C-3.03622611 0 -3.03622611 0 0 0 Z " fill="#2E3C90" transform="translate(506.4375,402)"/>
<path d="M0 0 C1.33278992 0.00303635 1.33278992 0.00303635 2.69250488 0.00613403 C3.5987561 0.00517731 4.50500732 0.00422058 5.4387207 0.00323486 C7.35876535 0.002553 9.27881229 0.00440771 11.19885254 0.00857544 C14.14861192 0.01392361 17.09821902 0.00863066 20.04797363 0.00222778 C21.90865105 0.00288856 23.76932838 0.00416972 25.63000488 0.00613403 C26.51853149 0.0041098 27.40705811 0.00208557 28.32250977 0 C34.546305 0.02399665 34.546305 0.02399665 35.66125488 1.13894653 C35.66125488 8.06894653 35.66125488 14.99894653 35.66125488 22.13894653 C21.47125488 22.13894653 7.28125488 22.13894653 -7.33874512 22.13894653 C-7.33874512 0.02829548 -7.33874512 0.02829548 0 0 Z " fill="#2E3D90" transform="translate(714.3387451171875,340.8610534667969)"/>
<path d="M0 0 C20.13 0 40.26 0 61 0 C61 2.64 61 5.28 61 8 C40.87 8 20.74 8 0 8 C0 5.36 0 2.72 0 0 Z " fill="#E9EBF3" transform="translate(339,796)"/>
<path d="M0 0 C14.85 0 29.7 0 45 0 C46.32 3.96 47.64 7.92 49 12 C42.73 12 36.46 12 30 12 C29.505 8.535 29.505 8.535 29 5 C24.71 5 20.42 5 16 5 C15.67 7.31 15.34 9.62 15 12 C9.06 12 3.12 12 -3 12 C-2 5 -2 5 0 0 Z " fill="#2C3A8F" transform="translate(706,366)"/>
<path d="M0 0 C5.22580645 2.22580645 5.22580645 2.22580645 7 4 C7.27961718 7.14569327 7.33980502 9.31546525 5.921875 12.171875 C3.075619 14.87928924 0.85427473 14.49772304 -3 14.4375 C-4.2375 14.43621094 -5.475 14.43492187 -6.75 14.43359375 C-10 14 -10 14 -11.92578125 12.734375 C-13.8640469 9.60495701 -13.17685037 6.59595758 -13 3 C-8.44784545 0.33532416 -5.2694336 -0.56458217 0 0 Z " fill="#F4802F" transform="translate(277,867)"/>
<path d="M0 0 C1.79244141 0.01740234 1.79244141 0.01740234 3.62109375 0.03515625 C5.41740234 0.04869141 5.41740234 0.04869141 7.25 0.0625 C8.17683594 0.07410156 9.10367188 0.08570313 10.05859375 0.09765625 C11.51922225 2.74504541 12.05859375 3.99213959 12.05859375 7.09765625 C17.99859375 7.42765625 23.93859375 7.75765625 30.05859375 8.09765625 C30.05859375 8.42765625 30.05859375 8.75765625 30.05859375 9.09765625 C12.56859375 9.09765625 -4.92140625 9.09765625 -22.94140625 9.09765625 C-22.61140625 8.10765625 -22.28140625 7.11765625 -21.94140625 6.09765625 C-21.94140625 6.75765625 -21.94140625 7.41765625 -21.94140625 8.09765625 C-13.52640625 7.60265625 -13.52640625 7.60265625 -4.94140625 7.09765625 C-4.61140625 5.11765625 -4.28140625 3.13765625 -3.94140625 1.09765625 C-2.94140625 0.09765625 -2.94140625 0.09765625 0 0 Z " fill="#9CA2CA" transform="translate(724.94140625,369.90234375)"/>
<path d="M0 0 C1.13917374 0.00666183 1.13917374 0.00666183 2.30136108 0.01345825 C3.59247299 0.01368484 3.59247299 0.01368484 4.90966797 0.01391602 C5.83991791 0.02423859 6.77016785 0.03456116 7.72860718 0.04519653 C8.68020721 0.04802643 9.63180725 0.05085632 10.61224365 0.05377197 C13.6589706 0.06498914 16.70540621 0.09009641 19.75204468 0.11550903 C21.81454044 0.12553685 23.8770408 0.13466304 25.93954468 0.14285278 C31.00215735 0.16493349 36.06455158 0.19947374 41.12704468 0.24050903 C40.79704468 0.90050903 40.46704468 1.56050903 40.12704468 2.24050903 C26.59704468 2.57050903 13.06704468 2.90050903 -0.87295532 3.24050903 C-0.87295532 10.17050903 -0.87295532 17.10050903 -0.87295532 24.24050903 C19.42204468 24.73550903 19.42204468 24.73550903 40.12704468 25.24050903 C40.12704468 25.57050903 40.12704468 25.90050903 40.12704468 26.24050903 C25.60704468 26.24050903 11.08704468 26.24050903 -3.87295532 26.24050903 C-3.91420532 22.32175903 -3.95545532 18.40300903 -3.99795532 14.36550903 C-4.01616333 13.13074829 -4.03437134 11.89598755 -4.0531311 10.62380981 C-4.05812622 9.65427368 -4.06312134 8.68473755 -4.06826782 7.68582153 C-4.07874146 6.69082642 -4.08921509 5.6958313 -4.1000061 4.67068481 C-3.81934049 1.6666574 -3.11124177 0.39951927 0 0 Z " fill="#FCFCFD" transform="translate(708.8729553222656,338.7594909667969)"/>
<path d="M0 0 C0.66 0.33 1.32 0.66 2 1 C-9.33292341 8.27017728 -21.12295223 14.66973461 -33 21 C-33.70302246 21.37560059 -34.40604492 21.75120117 -35.13037109 22.13818359 C-42.37328753 25.98239956 -42.37328753 25.98239956 -45 27 C-45.66 26.67 -46.32 26.34 -47 26 C-46.67 25.34 -46.34 24.68 -46 24 C-46.66 23.67 -47.32 23.34 -48 23 C-45.87569913 22.08171432 -43.75051677 21.16546778 -41.625 20.25 C-40.97942139 19.97124023 -40.33384277 19.69248047 -39.66870117 19.40527344 C-36.24278627 17.93343047 -32.81081382 16.54244987 -29.3125 15.25 C-19.9189499 11.55855473 -10.57021413 6.53395042 -2.05078125 1.12890625 C-1.37402344 0.75636719 -0.69726562 0.38382813 0 0 Z " fill="#6F79B2" transform="translate(678,678)"/>
<path d="M0 0 C0.66 0.66 1.32 1.32 2 2 C1.67 2.99 1.34 3.98 1 5 C18.49 5 35.98 5 54 5 C54 5.33 54 5.66 54 6 C43.1489636 7.00551029 32.37072811 7.1553923 21.48168945 7.13037109 C18.64724594 7.12492262 15.81295489 7.13039459 12.97851562 7.13671875 C11.17708298 7.13605941 9.37565044 7.13478124 7.57421875 7.1328125 C6.72647385 7.13483673 5.87872894 7.13686096 5.0052948 7.13894653 C-0.88499291 7.11500709 -0.88499291 7.11500709 -2 6 C-2.04063832 4.33382885 -2.042721 2.66611905 -2 1 C-1.34 0.67 -0.68 0.34 0 0 Z " fill="#FBFBFD" transform="translate(701,374)"/>
<path d="M0 0 C0.33 0 0.66 0 1 0 C1 7.92 1 15.84 1 24 C15.85 24 30.7 24 46 24 C46 24.33 46 24.66 46 25 C31.48 25 16.96 25 2 25 C1.01 27.97 0.02 30.94 -1 34 C-1.99 34 -2.98 34 -4 34 C-3.51917969 32.78441406 -3.03835938 31.56882812 -2.54296875 30.31640625 C-0.5212359 24.2512077 -0.44065226 18.28286785 -0.3125 11.9375 C-0.27833984 10.78572266 -0.24417969 9.63394531 -0.20898438 8.44726562 C-0.12720179 5.6316079 -0.05782625 2.81623429 0 0 Z " fill="#B4B9D7" transform="translate(704,341)"/>
<path d="M0 0 C0.33 0 0.66 0 1 0 C1.01030746 0.83049866 1.02061493 1.66099731 1.03123474 2.5166626 C1.12922457 10.34447444 1.2317412 18.1722111 1.33933926 25.999897 C1.39449643 30.02415519 1.44790482 34.04842073 1.49731445 38.07275391 C1.54506441 41.95666491 1.59741088 45.84048928 1.65294075 49.72429657 C1.67331618 51.20582674 1.69203711 52.68738062 1.70907402 54.16895294 C1.73322485 56.24455833 1.76326432 58.32000139 1.79467773 60.39550781 C1.81022202 61.57687317 1.8257663 62.75823853 1.84178162 63.97540283 C1.97373377 66.49787902 2.2628844 68.59843504 3 71 C1.515 71.495 1.515 71.495 0 72 C0 48.24 0 24.48 0 0 Z " fill="#FDEFE4" transform="translate(773,429)"/>
<path d="M0 0 C2 1 2 1 3 3 C0.71296692 4.19725883 -1.57884862 5.38297018 -3.875 6.5625 C-4.85146484 7.07586914 -4.85146484 7.07586914 -5.84765625 7.59960938 C-7.53529857 8.46082891 -9.26579593 9.23686703 -11 10 C-11.66 9.67 -12.32 9.34 -13 9 C-12.67 8.34 -12.34 7.68 -12 7 C-12.66 6.67 -13.32 6.34 -14 6 C-11.71220962 4.96959833 -9.42048864 3.95047982 -7.125 2.9375 C-6.47402344 2.64294922 -5.82304688 2.34839844 -5.15234375 2.04492188 C-3.45989459 1.30338487 -1.73131425 0.64560999 0 0 Z " fill="#5B66A8" transform="translate(644,695)"/>
<path d="M0 0 C0.66 0 1.32 0 2 0 C2.33 1.98 2.66 3.96 3 6 C-2.28 6 -7.56 6 -13 6 C-12.67 5.01 -12.34 4.02 -12 3 C-8.04 3.33 -4.08 3.66 0 4 C0 2.68 0 1.36 0 0 Z " fill="#F1F2F8" transform="translate(734,371)"/>
<path d="M0 0 C2 2 2 2 2 5 C6.29 5.33 10.58 5.66 15 6 C15 6.33 15 6.66 15 7 C12.35409986 7.02684679 9.70846904 7.04676357 7.0625 7.0625 C5.93038086 7.07506836 5.93038086 7.07506836 4.77539062 7.08789062 C2.85005687 7.09652441 0.92464419 7.05224333 -1 7 C-2 6 -2 6 -2.0625 3.4375 C-2.041875 2.633125 -2.02125 1.82875 -2 1 C-1.34 0.67 -0.68 0.34 0 0 Z " fill="#E1E3EF" transform="translate(701,374)"/>
<path d="M0 0 C0 0.99 0 1.98 0 3 C-2.375 4.75 -2.375 4.75 -5 6 C-5.66 5.67 -6.32 5.34 -7 5 C-6.67 4.34 -6.34 3.68 -6 3 C-6.66 2.67 -7.32 2.34 -8 2 C-5.36 1.34 -2.72 0.68 0 0 Z " fill="#48559E" transform="translate(638,699)"/>
<path d="M0 0 C0.66 0.33 1.32 0.66 2 1 C-0.64 2.65 -3.28 4.3 -6 6 C-6.99 5.34 -7.98 4.68 -9 4 C-7.54618103 3.30300448 -6.08677047 2.61766134 -4.625 1.9375 C-3.40683594 1.36322266 -3.40683594 1.36322266 -2.1640625 0.77734375 C-1.44992187 0.52082031 -0.73578125 0.26429688 0 0 Z " fill="#6570AD" transform="translate(664,686)"/>
<path d="M0 0 C0.66 0.33 1.32 0.66 2 1 C-0.31 3.31 -2.62 5.62 -5 8 C-5.33 7.34 -5.66 6.68 -6 6 C-4 4 -2 2 0 0 Z " fill="#47539D" transform="translate(169,778)"/>
</svg>
